<svg width="72" height="72" viewBox="0 0 72 72" fill="none" xmlns="http://www.w3.org/2000/svg">
<g clip-path="url(#clip0_47_68)">
<rect width="72" height="72" rx="17.0769" fill="#FEFBFF"/>
<path d="M38.6667 39.68V24.6667C38.6667 23.7826 38.3155 22.9348 37.6904 22.3096C37.0653 21.6845 36.2174 21.3333 35.3334 21.3333C34.4493 21.3333 33.6015 21.6845 32.9764 22.3096C32.3512 22.9348 32 23.7826 32 24.6667V39.68C30.9297 40.3951 30.1178 41.4355 29.6841 42.6475C29.2505 43.8594 29.2181 45.1787 29.5917 46.4105C29.9654 47.6423 30.7253 48.7213 31.7592 49.4881C32.7931 50.2549 34.0462 50.6689 35.3334 50.6689C36.6206 50.6689 37.8737 50.2549 38.9076 49.4881C39.9415 48.7213 40.7014 47.6423 41.075 46.4105C41.4487 45.1787 41.4163 43.8594 40.9826 42.6475C40.5489 41.4355 39.737 40.3951 38.6667 39.68Z" stroke="#418FBF" stroke-width="2" stroke-linecap="round" stroke-linejoin="round"/>
</g>
<defs>
<clipPath id="clip0_47_68">
<rect width="72" height="72" fill="white"/>
</clipPath>
</defs>
</svg>
